Exo-Light.ufo
<glyph name="quotesingle" format="2">
  <advance width="113"/>
  <unicode hex="0027"/>
  <note>
GF Latin Plus glyph
</note>
  <outline>
    <contour>
      <point x="51" y="515" type="line"/>
      <point x="63" y="515" type="line"/>
      <point x="69" y="673" type="line"/>
      <point x="69" y="740" type="line"/>
      <point x="44" y="740" type="line"/>
      <point x="44" y="673" type="line"/>
    </contour>
  </outline>
</glyph>
<glyph name="parenleft" format="2">
  <advance width="315"/>
  <unicode hex="0028"/>
  <note>
GF Latin Plus glyph
</note>
  <outline>
    <contour>
      <point x="260" y="-210" type="curve"/>
      <point x="288" y="-210" type="line"/>
      <point x="191" y="-35"/>
      <point x="125" y="130"/>
      <point x="125" y="326" type="curve" smooth="yes"/>
      <point x="125" y="519"/>
      <point x="191" y="687"/>
      <point x="287" y="860" type="curve"/>
      <point x="260" y="860" type="line"/>
      <point x="164" y="687"/>
      <point x="101" y="519"/>
      <point x="101" y="326" type="curve" smooth="yes"/>
      <point x="101" y="130"/>
      <point x="162" y="-35"/>
    </contour>
  </outline>
</glyph>
<glyph name="parenright" format="2">
  <advance width="314"/>
  <unicode hex="0029"/>
  <note>
GF Latin Plus glyph
</note>
  <outline>
    <contour>
      <point x="27" y="-210" type="curve"/>
      <point x="54" y="-210" type="line"/>
      <point x="162" y="-25"/>
      <point x="213" y="130"/>
      <point x="213" y="326" type="curve" smooth="yes"/>
      <point x="213" y="519"/>
      <point x="160" y="677"/>
      <point x="54" y="860" type="curve"/>
      <point x="27" y="860" type="line"/>
      <point x="133" y="677"/>
      <point x="189" y="519"/>
      <point x="189" y="326" type="curve" smooth="yes"/>
      <point x="189" y="131"/>
      <point x="134" y="-25"/>
    </contour>
  </outline>
</glyph>
<glyph name="at" format="2">
  <advance width="866"/>
  <unicode hex="0040"/>
  <note>
GF Latin Plus glyph
</note>
  <outline>
    <contour>
      <point x="256" y="-148" type="curve" smooth="yes"/>
      <point x="575" y="-148" type="line" smooth="yes"/>
      <point x="713" y="-148"/>
      <point x="752" y="-68"/>
      <point x="752" y="30" type="curve" smooth="yes"/>
      <point x="752" y="542" type="line" smooth="yes"/>
      <point x="752" y="667"/>
      <point x="681" y="730"/>
      <point x="575" y="730" type="curve" smooth="yes"/>
      <point x="474" y="730" type="line" smooth="yes"/>
      <point x="348" y="730"/>
      <point x="234" y="730"/>
      <point x="186" y="720" type="curve"/>
      <point x="186" y="706" type="line"/>
      <point x="575" y="706" type="line" smooth="yes"/>
      <point x="679" y="706"/>
      <point x="728" y="636"/>
      <point x="728" y="542" type="curve" smooth="yes"/>
      <point x="728" y="30" type="line" smooth="yes"/>
      <point x="728" y="-72"/>
      <point x="678" y="-123"/>
      <point x="575" y="-123" type="curve" smooth="yes"/>
      <point x="256" y="-123" type="line" smooth="yes"/>
      <point x="188" y="-123"/>
      <point x="112" y="-88"/>
      <point x="112" y="30" type="curve" smooth="yes"/>
      <point x="112" y="378" type="line" smooth="yes"/>
      <point x="112" y="481"/>
      <point x="170" y="518"/>
      <point x="256" y="518" type="curve" smooth="yes"/>
      <point x="453" y="518" type="line" smooth="yes"/>
      <point x="533" y="518"/>
      <point x="585" y="482"/>
      <point x="585" y="400" type="curve" smooth="yes"/>
      <point x="585" y="304" type="line"/>
      <point x="362" y="304" type="line" smooth="yes"/>
      <point x="279" y="304"/>
      <point x="233" y="259"/>
      <point x="233" y="191" type="curve" smooth="yes"/>
      <point x="233" y="138" type="line" smooth="yes"/>
      <point x="233" y="70"/>
      <point x="287" y="21"/>
      <point x="361" y="21" type="curve" smooth="yes"/>
      <point x="452" y="21"/>
      <point x="584" y="94"/>
      <point x="586" y="94" type="curve"/>
      <point x="593" y="30" type="line"/>
      <point x="609" y="30" type="line"/>
      <point x="609" y="402" type="line" smooth="yes"/>
      <point x="609" y="512"/>
      <point x="527" y="542"/>
      <point x="456" y="542" type="curve" smooth="yes"/>
      <point x="256" y="542" type="line" smooth="yes"/>
      <point x="90" y="542"/>
      <point x="88" y="414"/>
      <point x="88" y="378" type="curve" smooth="yes"/>
      <point x="88" y="30" type="line" smooth="yes"/>
      <point x="88" y="-86"/>
      <point x="154" y="-148"/>
    </contour>
    <contour>
      <point x="368" y="45" type="curve" smooth="yes"/>
      <point x="300" y="45"/>
      <point x="257" y="84"/>
      <point x="257" y="144" type="curve" smooth="yes"/>
      <point x="257" y="189" type="line" smooth="yes"/>
      <point x="257" y="269"/>
      <point x="327" y="278"/>
      <point x="367" y="280" type="curve" smooth="yes"/>
      <point x="585" y="290" type="line"/>
      <point x="585" y="108" type="line"/>
      <point x="535" y="84"/>
      <point x="427" y="45"/>
    </contour>
  </outline>
</glyph>
<glyph name="G" format="2">
  <advance width="642"/>
  <unicode hex="0047"/>
  <note>
GF Latin Plus glyph
</note>
  <anchor x="330" y="-150" name="bottom"/>
  <anchor x="330" y="810" name="top"/>
  <outline>
    <contour>
      <point x="313" y="-5" type="curve" smooth="yes"/>
      <point x="395" y="-4"/>
      <point x="477" y="27"/>
      <point x="532" y="53" type="curve"/>
      <point x="538" y="0" type="line"/>
      <point x="554" y="0" type="line"/>
      <point x="554" y="363" type="line"/>
      <point x="534.571" y="366.429"/>
      <point x="505" y="368"/>
      <point x="476" y="368" type="curve" smooth="yes"/>
      <point x="410" y="368"/>
      <point x="352.761" y="363.655"/>
      <point x="316" y="358" type="curve"/>
      <point x="316" y="344" type="line"/>
      <point x="530" y="344" type="line"/>
      <point x="530" y="69" type="line"/>
      <point x="470" y="44"/>
      <point x="384" y="17"/>
      <point x="313" y="17" type="curve" smooth="yes"/>
      <point x="138" y="17"/>
      <point x="94" y="101"/>
      <point x="94" y="368" type="curve" smooth="yes"/>
      <point x="94" y="613"/>
      <point x="141.461" y="716"/>
      <point x="300" y="716" type="curve" smooth="yes"/>
      <point x="386.24" y="716"/>
      <point x="488.628" y="706.148"/>
      <point x="527" y="702" type="curve"/>
      <point x="527" y="718" type="line"/>
      <point x="463.732" y="729.409"/>
      <point x="358.485" y="738"/>
      <point x="300" y="738" type="curve" smooth="yes"/>
      <point x="126.491" y="738"/>
      <point x="70" y="629"/>
      <point x="70" y="370" type="curve" smooth="yes"/>
      <point x="70" y="86"/>
      <point x="123" y="-7"/>
    </contour>
  </outline>
</glyph>
<glyph name="O" format="2">
  <advance width="676"/>
  <unicode hex="004F"/>
  <note>
GF Latin Plus glyph
</note>
  <anchor x="338" y="-150" name="bottom"/>
  <anchor x="398" y="0" name="ogonek"/>
  <anchor x="338" y="810" name="top"/>
  <outline>
    <contour>
      <point x="338" y="-6" type="curve" smooth="yes"/>
      <point x="518" y="-6"/>
      <point x="606" y="37"/>
      <point x="606" y="361" type="curve" smooth="yes"/>
      <point x="606" y="685"/>
      <point x="521" y="738"/>
      <point x="338" y="738" type="curve" smooth="yes"/>
      <point x="163" y="738"/>
      <point x="70" y="685"/>
      <point x="70" y="361" type="curve" smooth="yes"/>
      <point x="70" y="37"/>
      <point x="158" y="-6"/>
    </contour>
    <contour>
      <point x="338" y="16" type="curve" smooth="yes"/>
      <point x="159" y="16"/>
      <point x="94" y="59"/>
      <point x="94" y="361" type="curve" smooth="yes"/>
      <point x="94" y="678"/>
      <point x="180" y="716"/>
      <point x="338" y="716" type="curve" smooth="yes"/>
      <point x="508" y="716"/>
      <point x="582" y="678"/>
      <point x="582" y="361" type="curve" smooth="yes"/>
      <point x="582" y="59"/>
      <point x="509" y="16"/>
    </contour>
  </outline>
</glyph>
<glyph name="W" format="2">
  <advance width="991"/>
  <unicode hex="0057"/>
  <note>
GF Latin Plus glyph
</note>
  <anchor x="492" y="810" name="top"/>
  <outline>
    <contour>
      <point x="246" y="0" type="line"/>
      <point x="280" y="0" type="line"/>
      <point x="496" y="708" type="line"/>
      <point x="711" y="0" type="line"/>
      <point x="745" y="0" type="line"/>
      <point x="943" y="732" type="line"/>
      <point x="919" y="732" type="line"/>
      <point x="728" y="21" type="line"/>
      <point x="513" y="732" type="line"/>
      <point x="479" y="732" type="line"/>
      <point x="263" y="21" type="line"/>
      <point x="73" y="732" type="line"/>
      <point x="48" y="732" type="line"/>
    </contour>
  </outline>
</glyph>
<glyph name="a" format="2">
  <advance width="540"/>
  <unicode hex="0061"/>
  <note>
GF Latin Plus glyph
</note>
  <anchor x="270" y="-150" name="bottom"/>
  <anchor x="443" y="0" name="ogonek"/>
  <anchor x="270" y="650" name="top"/>
  <outline>
    <contour>
      <point x="187" y="-6" type="curve" smooth="yes"/>
      <point x="285" y="-6"/>
      <point x="427" y="64"/>
      <point x="429" y="64" type="curve"/>
      <point x="437" y="0" type="line"/>
      <point x="453" y="0" type="line"/>
      <point x="453" y="387" type="line" smooth="yes"/>
      <point x="453" y="487"/>
      <point x="404" y="542"/>
      <point x="276" y="541" type="curve" smooth="yes"/>
      <point x="202.55" y="540.07"/>
      <point x="145.844" y="536.86"/>
      <point x="104" y="535" type="curve"/>
      <point x="104" y="519" type="line"/>
      <point x="274" y="519" type="line" smooth="yes"/>
      <point x="396" y="519"/>
      <point x="429" y="466"/>
      <point x="429" y="387" type="curve" smooth="yes"/>
      <point x="429" y="298" type="line"/>
      <point x="213" y="298" type="line" smooth="yes"/>
      <point x="109" y="298"/>
      <point x="54" y="242"/>
      <point x="54" y="157" type="curve" smooth="yes"/>
      <point x="54" y="126" type="line" smooth="yes"/>
      <point x="54" y="41"/>
      <point x="111" y="-6"/>
    </contour>
    <contour>
      <point x="187" y="18" type="curve" smooth="yes"/>
      <point x="138" y="19"/>
      <point x="78" y="46"/>
      <point x="78" y="131" type="curve" smooth="yes"/>
      <point x="78" y="157" type="line" smooth="yes"/>
      <point x="78" y="222"/>
      <point x="112" y="272"/>
      <point x="207" y="275" type="curve" smooth="yes"/>
      <point x="429" y="282" type="line"/>
      <point x="429" y="80" type="line"/>
      <point x="429" y="80"/>
      <point x="267" y="16"/>
    </contour>
  </outline>
</glyph>
<glyph name="d" format="2">
  <advance width="568"/>
  <unicode hex="0064"/>
  <note>
GF Latin Plus glyph
</note>
  <anchor x="501" y="650" name="altcaron"/>
  <anchor x="290" y="-150" name="bottom"/>
  <anchor x="469" y="850" name="top"/>
  <outline>
    <contour>
      <point x="262" y="-6" type="curve" smooth="yes"/>
      <point x="329.209" y="-6"/>
      <point x="431.072" y="33.066"/>
      <point x="457" y="57" type="curve"/>
      <point x="465" y="0" type="line"/>
      <point x="481" y="0" type="line"/>
      <point x="481" y="763" type="line"/>
      <point x="457" y="763" type="line"/>
      <point x="457" y="501" type="line"/>
      <point x="408.697" y="517.758"/>
      <point x="339.899" y="537"/>
      <point x="272" y="537" type="curve" smooth="yes"/>
      <point x="130" y="537"/>
      <point x="70" y="461"/>
      <point x="70" y="263" type="curve" smooth="yes"/>
      <point x="70" y="85"/>
      <point x="125.912" y="-6"/>
    </contour>
    <contour>
      <point x="262" y="16" type="curve" smooth="yes"/>
      <point x="141.848" y="16"/>
      <point x="94" y="94"/>
      <point x="94" y="263" type="curve" smooth="yes"/>
      <point x="94" y="451"/>
      <point x="145" y="515"/>
      <point x="272" y="515" type="curve" smooth="yes"/>
      <point x="344.608" y="515"/>
      <point x="391.333" y="501.914"/>
      <point x="457" y="485" type="curve"/>
      <point x="457" y="73" type="line"/>
      <point x="404.215" y="46.109"/>
      <point x="340.568" y="16"/>
    </contour>
  </outline>
</glyph>
<glyph name="r" format="2">
  <advance width="404"/>
  <unicode hex="0072"/>
  <note>
GF Latin Plus glyph
</note>
  <anchor x="103" y="-150" name="bottom"/>
  <anchor x="200" y="650" name="top"/>
  <outline>
    <contour>
      <point x="91" y="0" type="line"/>
      <point x="115" y="0" type="line"/>
      <point x="115" y="414" type="line"/>
      <point x="187.216" y="478.408"/>
      <point x="237.909" y="513"/>
      <point x="323" y="513" type="curve" smooth="yes"/>
      <point x="344.094" y="513"/>
      <point x="362" y="510"/>
      <point x="377" y="507" type="curve"/>
      <point x="377" y="531" type="line"/>
      <point x="362.925" y="534.704"/>
      <point x="344.094" y="537"/>
      <point x="323" y="537" type="curve" smooth="yes"/>
      <point x="236.859" y="537"/>
      <point x="170.925" y="492.793"/>
      <point x="115" y="430" type="curve"/>
      <point x="107" y="531" type="line"/>
      <point x="91" y="531" type="line"/>
    </contour>
  </outline>
</glyph>
<glyph name="u" format="2">
  <advance width="582"/>
  <unicode hex="0075"/>
  <note>
GF Latin Plus glyph
</note>
  <anchor x="280" y="-150" name="bottom"/>
  <anchor x="485" y="0" name="ogonek"/>
  <anchor x="280" y="650" name="top"/>
  <outline>
    <contour>
      <point x="255" y="-6" type="curve" smooth="yes"/>
      <point x="336" y="-6"/>
      <point x="413" y="24"/>
      <point x="471" y="62" type="curve"/>
      <point x="481" y="0" type="line"/>
      <point x="495" y="0" type="line"/>
      <point x="495" y="531" type="line"/>
      <point x="471" y="531" type="line"/>
      <point x="471" y="76" type="line"/>
      <point x="397" y="36"/>
      <point x="343" y="16"/>
      <point x="261" y="16" type="curve" smooth="yes"/>
      <point x="166" y="16"/>
      <point x="115" y="47"/>
      <point x="115" y="159" type="curve" smooth="yes"/>
      <point x="115" y="531" type="line"/>
      <point x="91" y="531" type="line"/>
      <point x="91" y="159" type="line" smooth="yes"/>
      <point x="91" y="39"/>
      <point x="149" y="-6"/>
    </contour>
  </outline>
</glyph>
<glyph name="asciitilde" format="2">
  <advance width="473"/>
  <unicode hex="007E"/>
  <note>
GF Latin Plus glyph
</note>
  <outline>
    <contour>
      <point x="300" y="541" type="curve" smooth="yes"/>
      <point x="342" y="541"/>
      <point x="373" y="570"/>
      <point x="406" y="603" type="curve"/>
      <point x="400" y="610" type="line"/>
      <point x="377" y="591"/>
      <point x="339" y="557"/>
      <point x="300" y="557" type="curve" smooth="yes"/>
      <point x="268" y="557"/>
      <point x="217" y="630"/>
      <point x="174" y="630" type="curve" smooth="yes"/>
      <point x="135" y="630"/>
      <point x="102" y="602"/>
      <point x="68" y="572" type="curve"/>
      <point x="72" y="564" type="line"/>
      <point x="108" y="590"/>
      <point x="136" y="614"/>
      <point x="174" y="614" type="curve" smooth="yes"/>
      <point x="207" y="614"/>
      <point x="254" y="541"/>
    </contour>
  </outline>
</glyph>
<glyph name="cedilla" format="2">
  <advance width="267"/>
  <unicode hex="00B8"/>
  <note>
GF Latin Plus glyph
</note>
  <outline>
    <contour>
      <point x="68" y="-183" type="line"/>
      <point x="88" y="-183" type="line" smooth="yes"/>
      <point x="143" y="-183"/>
      <point x="176" y="-160"/>
      <point x="176" y="-119" type="curve" smooth="yes"/>
      <point x="176" y="-81"/>
      <point x="156" y="-58"/>
      <point x="92" y="-58" type="curve"/>
      <point x="78" y="-68" type="line"/>
      <point x="147" y="-68"/>
      <point x="161" y="-91"/>
      <point x="161" y="-117" type="curve" smooth="yes"/>
      <point x="161" y="-153"/>
      <point x="137" y="-168"/>
      <point x="94" y="-171" type="curve" smooth="yes"/>
      <point x="68" y="-173" type="line"/>
    </contour>
    <contour>
      <point x="78" y="-68" type="line"/>
      <point x="92" y="-68" type="line"/>
      <point x="145" y="10" type="line"/>
      <point x="131" y="10" type="line"/>
    </contour>
  </outline>
</glyph>
<glyph name="Oslash" format="2">
  <advance width="676"/>
  <unicode hex="00D8"/>
  <note>
GF Latin Plus glyph
</note>
  <anchor x="338" y="810" name="top"/>
  <outline>
    <contour>
      <point x="85" y="0" type="line"/>
      <point x="110" y="0" type="line"/>
      <point x="591" y="732" type="line"/>
      <point x="566" y="732" type="line"/>
    </contour>
    <component base="O"/>
  </outline>
</glyph>
<glyph name="ae" format="2">
  <advance width="905"/>
  <unicode hex="00E6"/>
  <note>
GF Latin Plus glyph
</note>
  <anchor x="448" y="650" name="top"/>
  <outline>
    <contour>
      <point x="187" y="-6" type="curve" smooth="yes"/>
      <point x="295.406" y="-6"/>
      <point x="391.539" y="52.483"/>
      <point x="450" y="118" type="curve"/>
      <point x="477.129" y="60.727"/>
      <point x="518.303" y="-6"/>
      <point x="646" y="-6" type="curve" smooth="yes"/>
      <point x="695" y="-6"/>
      <point x="765.067" y="-3.799"/>
      <point x="823" y="0" type="curve"/>
      <point x="823" y="16" type="line"/>
      <point x="646" y="16" type="line" smooth="yes"/>
      <point x="540" y="16"/>
      <point x="451" y="62"/>
      <point x="453" y="268" type="curve"/>
      <point x="698" y="268" type="line" smooth="yes"/>
      <point x="784" y="268"/>
      <point x="835" y="287"/>
      <point x="835" y="369" type="curve" smooth="yes"/>
      <point x="835" y="497.291"/>
      <point x="766" y="537"/>
      <point x="632" y="537" type="curve" smooth="yes"/>
      <point x="541" y="537"/>
      <point x="470.549" y="515.049"/>
      <point x="448" y="427" type="curve"/>
      <point x="428.711" y="508.441"/>
      <point x="359" y="542"/>
      <point x="280" y="541" type="curve" smooth="yes"/>
      <point x="190" y="540"/>
      <point x="148" y="538"/>
      <point x="104" y="535" type="curve"/>
      <point x="104" y="519" type="line"/>
      <point x="279" y="519" type="line" smooth="yes"/>
      <point x="396" y="519"/>
      <point x="429" y="456"/>
      <point x="429" y="387" type="curve" smooth="yes"/>
      <point x="429" y="290" type="line"/>
      <point x="207" y="290" type="line" smooth="yes"/>
      <point x="112.841" y="290"/>
      <point x="54" y="241.278"/>
      <point x="54" y="155" type="curve" smooth="yes"/>
      <point x="54" y="130" type="line" smooth="yes"/>
      <point x="54" y="41"/>
      <point x="104" y="-6"/>
    </contour>
    <contour>
      <point x="187" y="18" type="curve" smooth="yes"/>
      <point x="130" y="18"/>
      <point x="78" y="46"/>
      <point x="78" y="131" type="curve" smooth="yes"/>
      <point x="78" y="155" type="line" smooth="yes"/>
      <point x="78" y="218.239"/>
      <point x="111.583" y="268"/>
      <point x="207" y="268" type="curve" smooth="yes"/>
      <point x="429" y="268" type="line"/>
      <point x="430" y="206"/>
      <point x="439" y="163"/>
      <point x="444" y="139" type="curve"/>
      <point x="373" y="62"/>
      <point x="277" y="18"/>
    </contour>
    <contour>
      <point x="453" y="290" type="line"/>
      <point x="455" y="477"/>
      <point x="495" y="515"/>
      <point x="633" y="515" type="curve" smooth="yes"/>
      <point x="770" y="515"/>
      <point x="811" y="472.546"/>
      <point x="811" y="369" type="curve" smooth="yes"/>
      <point x="811" y="295"/>
      <point x="761" y="290"/>
      <point x="698" y="290" type="curve" smooth="yes"/>
    </contour>
  </outline>
</glyph>
<glyph name="divide" format="2">
  <advance width="609"/>
  <unicode hex="00F7"/>
  <note>
GF Latin Plus glyph
</note>
  <outline>
    <contour>
      <point x="298" y="513" type="curve" smooth="yes"/>
      <point x="310" y="513" type="line" smooth="yes"/>
      <point x="324" y="513"/>
      <point x="335" y="518"/>
      <point x="335" y="536" type="curve" smooth="yes"/>
      <point x="335" y="563" type="line" smooth="yes"/>
      <point x="335" y="579"/>
      <point x="328" y="588"/>
      <point x="310" y="588" type="curve" smooth="yes"/>
      <point x="298" y="588" type="line" smooth="yes"/>
      <point x="282" y="588"/>
      <point x="274" y="578"/>
      <point x="274" y="563" type="curve" smooth="yes"/>
      <point x="274" y="536" type="line" smooth="yes"/>
      <point x="274" y="522"/>
      <point x="284" y="513"/>
    </contour>
    <contour>
      <point x="298" y="124" type="curve" smooth="yes"/>
      <point x="310" y="124" type="line" smooth="yes"/>
      <point x="324" y="124"/>
      <point x="335" y="129"/>
      <point x="335" y="147" type="curve" smooth="yes"/>
      <point x="335" y="174" type="line" smooth="yes"/>
      <point x="335" y="190"/>
      <point x="328" y="199"/>
      <point x="310" y="199" type="curve" smooth="yes"/>
      <point x="298" y="199" type="line" smooth="yes"/>
      <point x="282" y="199"/>
      <point x="274" y="189"/>
      <point x="274" y="174" type="curve" smooth="yes"/>
      <point x="274" y="147" type="line" smooth="yes"/>
      <point x="274" y="133"/>
      <point x="284" y="124"/>
    </contour>
    <component base="minus"/>
  </outline>
</glyph>
<glyph name="idotless" format="2">
  <advance width="202"/>
  <unicode hex="0131"/>
  <note>
GF Latin Plus glyph
</note>
  <anchor x="103" y="-150" name="bottom"/>
  <anchor x="105" y="0" name="ogonek"/>
  <anchor x="103" y="650" name="top"/>
  <outline>
    <contour>
      <point x="91" y="0" type="line"/>
      <point x="115" y="0" type="line"/>
      <point x="115" y="531" type="line"/>
      <point x="91" y="531" type="line"/>
    </contour>
  </outline>
</glyph>
<glyph name="jdotless" format="2">
  <advance width="206"/>
  <unicode hex="0237"/>
  <note>
GF Latin Plus glyph
</note>
  <anchor x="103" y="650" name="top"/>
  <outline>
    <contour>
      <point x="91" y="-237" type="line"/>
      <point x="107" y="-237" type="line"/>
      <point x="109.685" y="-175.236"/>
      <point x="115" y="-77.705"/>
      <point x="115" y="27" type="curve" smooth="yes"/>
      <point x="115" y="531" type="line"/>
      <point x="91" y="531" type="line"/>
    </contour>
  </outline>
</glyph>
<glyph name="ringhalfleft" format="2">
  <advance width="192"/>
  <unicode hex="02BF"/>
  <outline>
    <contour>
      <point x="167" y="590" type="curve"/>
      <point x="167" y="606" type="line"/>
      <point x="86" y="606"/>
      <point x="49" y="630"/>
      <point x="49" y="697" type="curve" smooth="yes"/>
      <point x="49" y="765"/>
      <point x="86" y="789"/>
      <point x="167" y="789" type="curve"/>
      <point x="167" y="805" type="line"/>
      <point x="75" y="805"/>
      <point x="25" y="778"/>
      <point x="25" y="697" type="curve" smooth="yes"/>
      <point x="25" y="617"/>
      <point x="75" y="590"/>
    </contour>
  </outline>
</glyph>
<glyph name="circumflex" format="2">
  <advance width="407"/>
  <unicode hex="02C6"/>
  <note>
GF Latin Plus glyph
</note>
  <outline>
    <contour>
      <point x="68" y="631" type="line"/>
      <point x="86" y="631" type="line"/>
      <point x="210" y="746" type="line"/>
      <point x="322" y="631" type="line"/>
      <point x="340" y="631" type="line"/>
      <point x="220" y="761" type="line"/>
      <point x="200" y="761" type="line"/>
    </contour>
  </outline>
</glyph>
<glyph name="mu" format="2">
  <advance width="582"/>
  <unicode hex="03BC"/>
  <note>
GF Latin Plus glyph
</note>
  <outline>
    <contour>
      <point x="255" y="-6" type="curve" smooth="yes"/>
      <point x="336" y="-6"/>
      <point x="413" y="24"/>
      <point x="471" y="62" type="curve"/>
      <point x="481" y="0" type="line"/>
      <point x="495" y="0" type="line"/>
      <point x="495" y="532" type="line"/>
      <point x="471" y="532" type="line"/>
      <point x="471" y="76" type="line"/>
      <point x="397" y="36"/>
      <point x="343" y="16"/>
      <point x="261" y="16" type="curve" smooth="yes"/>
      <point x="175" y="16"/>
      <point x="115" y="47"/>
      <point x="115" y="159" type="curve" smooth="yes"/>
      <point x="115" y="532" type="line"/>
      <point x="91" y="532" type="line"/>
      <point x="91" y="179" type="line" smooth="yes"/>
      <point x="91" y="72"/>
      <point x="137" y="-6"/>
    </contour>
    <contour>
      <point x="91" y="-268" type="line"/>
      <point x="115" y="-268" type="line"/>
      <point x="115" y="219" type="line"/>
      <point x="91" y="219" type="line"/>
    </contour>
  </outline>
</glyph>
<glyph name="quoteleft" format="2">
  <advance width="155"/>
  <unicode hex="2018"/>
  <note>
GF Latin Plus glyph
</note>
  <outline>
    <contour>
      <point x="69" y="551" type="curve" smooth="yes"/>
      <point x="81" y="551" type="line" smooth="yes"/>
      <point x="91" y="551"/>
      <point x="95" y="556"/>
      <point x="95" y="567" type="curve" smooth="yes"/>
      <point x="95" y="630" type="line" smooth="yes"/>
      <point x="95" y="640"/>
      <point x="89" y="646"/>
      <point x="81" y="646" type="curve" smooth="yes"/>
      <point x="74" y="646" type="line"/>
      <point x="74" y="713" type="line" smooth="yes"/>
      <point x="74" y="727"/>
      <point x="80" y="732"/>
      <point x="93" y="732" type="curve"/>
      <point x="93" y="739" type="line"/>
      <point x="89" y="740"/>
      <point x="87" y="740"/>
      <point x="85" y="740" type="curve" smooth="yes"/>
      <point x="76" y="740"/>
      <point x="60" y="735"/>
      <point x="60" y="701" type="curve" smooth="yes"/>
      <point x="60" y="567" type="line" smooth="yes"/>
      <point x="60" y="558"/>
      <point x="62" y="551"/>
    </contour>
  </outline>
</glyph>
<glyph name="quoteright" format="2">
  <advance width="155"/>
  <unicode hex="2019"/>
  <note>
GF Latin Plus glyph
</note>
  <outline>
    <contour>
      <point x="70" y="551" type="curve" smooth="yes"/>
      <point x="79" y="551"/>
      <point x="95" y="556"/>
      <point x="95" y="590" type="curve" smooth="yes"/>
      <point x="95" y="724" type="line" smooth="yes"/>
      <point x="95" y="733"/>
      <point x="93" y="740"/>
      <point x="86" y="740" type="curve" smooth="yes"/>
      <point x="74" y="740" type="line" smooth="yes"/>
      <point x="64" y="740"/>
      <point x="60" y="735"/>
      <point x="60" y="724" type="curve" smooth="yes"/>
      <point x="60" y="661" type="line" smooth="yes"/>
      <point x="60" y="651"/>
      <point x="66" y="645"/>
      <point x="74" y="645" type="curve" smooth="yes"/>
      <point x="81" y="645" type="line"/>
      <point x="81" y="578" type="line" smooth="yes"/>
      <point x="81" y="564"/>
      <point x="75" y="559"/>
      <point x="62" y="559" type="curve"/>
      <point x="62" y="552" type="line"/>
      <point x="66" y="551"/>
      <point x="68" y="551"/>
    </contour>
  </outline>
</glyph>
<glyph name="foursuperior" format="2">
  <advance width="458"/>
  <unicode hex="2074"/>
  <note>
GF Latin Plus glyph
</note>
  <outline>
    <contour>
      <point x="324" y="281" type="line"/>
      <point x="346" y="281" type="line"/>
      <point x="346" y="434" type="line"/>
      <point x="435" y="439" type="line"/>
      <point x="435" y="454" type="line"/>
      <point x="346" y="454" type="line"/>
      <point x="346" y="668" type="line"/>
      <point x="331" y="668" type="line"/>
      <point x="324" y="626" type="line"/>
      <point x="324" y="454" type="line"/>
      <point x="67" y="454" type="line"/>
      <point x="295" y="820" type="line"/>
      <point x="272" y="820" type="line"/>
      <point x="43" y="453" type="line"/>
      <point x="51" y="434" type="line"/>
      <point x="324" y="434" type="line"/>
    </contour>
  </outline>
</glyph>
<glyph name="fivesuperior" format="2">
  <advance width="458"/>
  <unicode hex="2075"/>
  <note>

</note>
  <outline>
    <contour>
      <point x="76" y="297" type="line"/>
      <point x="76" y="282" type="line"/>
      <point x="124" y="277"/>
      <point x="194" y="277"/>
      <point x="268" y="277" type="curve" smooth="yes"/>
      <point x="357" y="277"/>
      <point x="429" y="320"/>
      <point x="429" y="403" type="curve" smooth="yes"/>
      <point x="429" y="483" type="line" smooth="yes"/>
      <point x="429" y="551"/>
      <point x="378" y="600"/>
      <point x="292" y="600" type="curve" smooth="yes"/>
      <point x="222" y="600" type="line" smooth="yes"/>
      <point x="164" y="600"/>
      <point x="132" y="574"/>
      <point x="122" y="551" type="curve"/>
      <point x="134" y="800" type="line"/>
      <point x="413" y="800" type="line"/>
      <point x="413" y="820" type="line"/>
      <point x="114" y="820" type="line"/>
      <point x="98" y="503" type="line"/>
      <point x="119" y="503" type="line"/>
      <point x="129" y="557"/>
      <point x="164" y="580"/>
      <point x="219" y="580" type="curve" smooth="yes"/>
      <point x="289" y="580" type="line" smooth="yes"/>
      <point x="367" y="580"/>
      <point x="407" y="542"/>
      <point x="407" y="481" type="curve" smooth="yes"/>
      <point x="407" y="405" type="line" smooth="yes"/>
      <point x="407" y="334"/>
      <point x="342" y="297"/>
      <point x="266" y="297" type="curve" smooth="yes"/>
    </contour>
  </outline>
</glyph>
<glyph name="kip" format="2">
  <advance width="609"/>
  <unicode hex="20AD"/>
  <note>
GF Latin Plus glyph
</note>
  <outline>
    <contour>
      <point x="108" y="0" type="line"/>
      <point x="132" y="0" type="line"/>
      <point x="132" y="356" type="line"/>
      <point x="286" y="356" type="line"/>
      <point x="527" y="0" type="line"/>
      <point x="554" y="0" type="line"/>
      <point x="306" y="367" type="line"/>
      <point x="554" y="732" type="line"/>
      <point x="528" y="732" type="line"/>
      <point x="287" y="378" type="line"/>
      <point x="132" y="378" type="line"/>
      <point x="132" y="732" type="line"/>
      <point x="108" y="732" type="line"/>
    </contour>
    <contour>
      <point x="30" y="356" type="line"/>
      <point x="539" y="356" type="line"/>
      <point x="539" y="378" type="line"/>
      <point x="30" y="378" type="line"/>
    </contour>
  </outline>
</glyph>
<glyph name="rupeeIndian" format="2">
  <advance width="609"/>
  <unicode hex="20B9"/>
  <note>
GF Latin Plus glyph
</note>
  <outline>
    <contour>
      <point x="418" y="0" type="line"/>
      <point x="442" y="0" type="line"/>
      <point x="281" y="323" type="line"/>
      <point x="344" y="326"/>
      <point x="440" y="354"/>
      <point x="440" y="532" type="curve" smooth="yes"/>
      <point x="440" y="711"/>
      <point x="343" y="732"/>
      <point x="264" y="732" type="curve" smooth="yes"/>
      <point x="62" y="732" type="line"/>
      <point x="62" y="710" type="line"/>
      <point x="284" y="710" type="line" smooth="yes"/>
      <point x="349" y="710"/>
      <point x="416" y="686"/>
      <point x="416" y="532" type="curve" smooth="yes"/>
      <point x="416" y="370"/>
      <point x="343" y="345"/>
      <point x="264" y="345" type="curve" smooth="yes"/>
      <point x="62" y="345" type="line"/>
      <point x="62" y="329" type="line"/>
      <point x="116.887" y="326.614"/>
      <point x="213.857" y="323.795"/>
      <point x="256" y="323" type="curve"/>
    </contour>
    <contour>
      <point x="62" y="518" type="line"/>
      <point x="579" y="518" type="line"/>
      <point x="579" y="540" type="line"/>
      <point x="62" y="540" type="line"/>
    </contour>
    <contour>
      <point x="207" y="710" type="line"/>
      <point x="579" y="710" type="line"/>
      <point x="579" y="732" type="line"/>
      <point x="207" y="732" type="line"/>
    </contour>
  </outline>
</glyph>
<glyph name="liraTurkish" format="2">
  <advance width="609"/>
  <unicode hex="20BA"/>
  <note>
GF Latin Plus glyph
</note>
  <outline>
    <contour>
      <point x="135" y="0" type="line"/>
      <point x="159" y="0" type="line" smooth="yes"/>
      <point x="404.778" y="0"/>
      <point x="554" y="67"/>
      <point x="554" y="327" type="curve"/>
      <point x="530" y="327" type="line"/>
      <point x="530" y="79"/>
      <point x="396.596" y="22"/>
      <point x="159" y="22" type="curve"/>
      <point x="159" y="732" type="line"/>
      <point x="135" y="732" type="line"/>
    </contour>
    <contour>
      <point x="10" y="245" type="line"/>
      <point x="459" y="475" type="line"/>
      <point x="459" y="499" type="line"/>
      <point x="10" y="269" type="line"/>
    </contour>
    <contour>
      <point x="10" y="405" type="line"/>
      <point x="459" y="635" type="line"/>
      <point x="459" y="659" type="line"/>
      <point x="10" y="429" type="line"/>
    </contour>
  </outline>
</glyph>
<glyph name="summation" format="2">
  <advance width="567"/>
  <unicode hex="2211"/>
  <note>

</note>
  <outline>
    <contour>
      <point x="268" y="270" type="line"/>
      <point x="54" y="-173" type="line"/>
      <point x="54" y="-200" type="line"/>
      <point x="540" y="-200" type="line"/>
      <point x="540" y="-176" type="line"/>
      <point x="80" y="-176" type="line"/>
      <point x="294" y="270" type="line"/>
      <point x="81" y="708" type="line"/>
      <point x="540" y="708" type="line"/>
      <point x="540" y="732" type="line"/>
      <point x="54" y="732" type="line"/>
      <point x="54" y="708" type="line"/>
    </contour>
  </outline>
</glyph>
<glyph name="notequal" format="2">
  <advance width="609"/>
  <unicode hex="2260"/>
  <note>
GF Latin Plus glyph
</note>
  <outline>
    <contour>
      <point x="120" y="79" type="line"/>
      <point x="146" y="79" type="line"/>
      <point x="488" y="633" type="line"/>
      <point x="462" y="633" type="line"/>
    </contour>
    <component base="equal"/>
  </outline>
</glyph>
<glyph name="M.salt" format="2">
  <advance width="809"/>
  <note>

</note>
  <anchor x="398" y="-150" name="bottom"/>
  <anchor x="398" y="810" name="top"/>
  <outline>
    <contour>
      <point x="120" y="652" type="curve" smooth="yes"/>
      <point x="68" y="0" type="line"/>
      <point x="91" y="0" type="line"/>
      <point x="143" y="662" type="line" smooth="yes"/>
      <point x="146" y="695"/>
      <point x="167" y="717"/>
      <point x="190" y="717" type="curve" smooth="yes"/>
      <point x="208" y="717"/>
      <point x="226" y="702"/>
      <point x="235" y="672" type="curve" smooth="yes"/>
      <point x="356" y="263" type="line" smooth="yes"/>
      <point x="366" y="231"/>
      <point x="386" y="215"/>
      <point x="412" y="215" type="curve" smooth="yes"/>
      <point x="439" y="215"/>
      <point x="460" y="232"/>
      <point x="468" y="263" type="curve" smooth="yes"/>
      <point x="577" y="673" type="line" smooth="yes"/>
      <point x="585" y="701"/>
      <point x="599" y="717"/>
      <point x="614" y="717" type="curve" smooth="yes"/>
      <point x="630" y="717"/>
      <point x="646" y="696"/>
      <point x="649" y="662" type="curve" smooth="yes"/>
      <point x="705" y="0" type="line"/>
      <point x="729" y="0" type="line"/>
      <point x="674" y="654" type="line" smooth="yes"/>
      <point x="669" y="710"/>
      <point x="648" y="739"/>
      <point x="613" y="739" type="curve" smooth="yes"/>
      <point x="585" y="739"/>
      <point x="564" y="720"/>
      <point x="554" y="681" type="curve" smooth="yes"/>
      <point x="445" y="270" type="line" smooth="yes"/>
      <point x="440" y="250"/>
      <point x="428" y="240"/>
      <point x="412" y="240" type="curve" smooth="yes"/>
      <point x="396.531" y="240"/>
      <point x="385.244" y="249.017"/>
      <point x="379" y="270" type="curve" smooth="yes"/>
      <point x="257" y="680" type="line" smooth="yes"/>
      <point x="245.104" y="719.977"/>
      <point x="224" y="739"/>
      <point x="192" y="739" type="curve" smooth="yes"/>
      <point x="154" y="739"/>
      <point x="124" y="709"/>
    </contour>
  </outline>
</glyph>
<glyph name="W.salt.smcp" format="2">
  <advance width="829"/>
  <note>

</note>
  <anchor x="419" y="-150" name="bottom"/>
  <anchor x="439" y="650" name="top"/>
  <outline>
    <contour>
      <point x="76" y="560" type="line"/>
      <point x="50" y="560" type="line"/>
      <point x="257" y="0" type="line"/>
      <point x="290" y="0" type="line"/>
      <point x="412" y="329" type="line"/>
      <point x="539" y="0" type="line"/>
      <point x="572" y="0" type="line"/>
      <point x="779" y="560" type="line"/>
      <point x="755" y="560" type="line"/>
      <point x="555" y="23" type="line"/>
      <point x="424" y="361" type="line"/>
      <point x="493" y="560" type="line"/>
      <point x="467" y="560" type="line"/>
      <point x="274" y="23" type="line"/>
    </contour>
  </outline>
</glyph>
<glyph name="X.salt" format="2">
  <advance width="591"/>
  <note>

</note>
  <anchor x="295" y="-150" name="bottom"/>
  <anchor x="295" y="810" name="top"/>
  <outline>
    <contour>
      <point x="219" y="265" type="curve" smooth="yes"/>
      <point x="53" y="0" type="line"/>
      <point x="79" y="0" type="line"/>
      <point x="239" y="254" type="line" smooth="yes"/>
      <point x="262" y="291"/>
      <point x="275" y="327"/>
      <point x="275" y="366" type="curve" smooth="yes"/>
      <point x="275" y="412"/>
      <point x="252" y="456"/>
      <point x="227" y="495" type="curve" smooth="yes"/>
      <point x="76" y="732" type="line"/>
      <point x="50" y="732" type="line"/>
      <point x="210" y="481" type="line" smooth="yes"/>
      <point x="234" y="444"/>
      <point x="253" y="406"/>
      <point x="253" y="366" type="curve" smooth="yes"/>
      <point x="253" y="330"/>
      <point x="240" y="298"/>
    </contour>
    <contour>
      <point x="355" y="253" type="curve" smooth="yes"/>
      <point x="515" y="0" type="line"/>
      <point x="541" y="0" type="line"/>
      <point x="373" y="265" type="line" smooth="yes"/>
      <point x="352.14" y="297.904"/>
      <point x="343" y="330"/>
      <point x="343" y="366" type="curve" smooth="yes"/>
      <point x="343" y="406"/>
      <point x="363.368" y="444.351"/>
      <point x="386" y="481" type="curve" smooth="yes"/>
      <point x="541" y="732" type="line"/>
      <point x="515" y="732" type="line"/>
      <point x="369" y="495" type="line" smooth="yes"/>
      <point x="344.531" y="455.28"/>
      <point x="321" y="412"/>
      <point x="321" y="366" type="curve" smooth="yes"/>
      <point x="321" y="328"/>
      <point x="331.065" y="290.848"/>
    </contour>
  </outline>
</glyph>
<glyph name=".notdef" format="2">
  <advance width="651"/>
  <note>

</note>
  <outline>
    <contour>
      <point x="60" y="531" type="line"/>
      <point x="60" y="0" type="line"/>
      <point x="591" y="0" type="line"/>
      <point x="591" y="531" type="line"/>
    </contour>
    <contour>
      <point x="476" y="98" type="line"/>
      <point x="493" y="115" type="line"/>
      <point x="343" y="265" type="line"/>
      <point x="493" y="415" type="line"/>
      <point x="476" y="432" type="line"/>
      <point x="326" y="282" type="line"/>
      <point x="176" y="432" type="line"/>
      <point x="159" y="415" type="line"/>
      <point x="309" y="265" type="line"/>
      <point x="159" y="115" type="line"/>
      <point x="176" y="98" type="line"/>
      <point x="326" y="248" type="line"/>
    </contour>
    <contour>
      <point x="567" y="24" type="line"/>
      <point x="84" y="24" type="line"/>
      <point x="84" y="507" type="line"/>
      <point x="567" y="507" type="line"/>
    </contour>
  </outline>
</glyph>
<glyph name="a.smcp" format="2">
  <advance width="565"/>
  <note>

</note>
  <anchor x="282" y="-150" name="bottom"/>
  <anchor x="505" y="0" name="ogonek"/>
  <anchor x="282" y="650" name="top"/>
  <outline>
    <contour>
      <point x="406" y="212" type="line"/>
      <point x="156" y="212" type="line"/>
      <point x="282" y="538" type="line"/>
    </contour>
    <contour>
      <point x="266" y="560" type="line"/>
      <point x="50" y="0" type="line"/>
      <point x="75" y="0" type="line"/>
      <point x="149" y="192" type="line"/>
      <point x="415" y="192" type="line"/>
      <point x="489" y="0" type="line"/>
      <point x="515" y="0" type="line"/>
      <point x="299" y="560" type="line"/>
    </contour>
  </outline>
</glyph>
<glyph name="circumflexcomb_acutecomb" format="2">
  <note>

</note>
  <anchor x="-269" y="650" name="_top"/>
  <outline>
    <contour>
      <point x="-277" y="721" type="line"/>
      <point x="-409" y="631" type="line"/>
      <point x="-391" y="631" type="line"/>
      <point x="-267" y="706" type="line"/>
      <point x="-155" y="631" type="line"/>
      <point x="-137" y="631" type="line"/>
      <point x="-257" y="721" type="line"/>
    </contour>
    <contour>
      <point x="-72" y="834" type="line"/>
      <point x="-193" y="701" type="line"/>
      <point x="-179" y="701" type="line"/>
      <point x="-46" y="834" type="line"/>
    </contour>
  </outline>
</glyph>
<glyph name="five.tnum" format="2">
  <advance width="609"/>
  <note>

</note>
  <outline>
    <contour>
      <point x="103" y="18" type="line"/>
      <point x="103" y="2" type="line"/>
      <point x="166" y="-4"/>
      <point x="259" y="-4"/>
      <point x="357" y="-4" type="curve" smooth="yes"/>
      <point x="474" y="-4"/>
      <point x="570" y="55"/>
      <point x="570" y="166" type="curve" smooth="yes"/>
      <point x="570" y="275" type="line" smooth="yes"/>
      <point x="570" y="367"/>
      <point x="502" y="433"/>
      <point x="387" y="433" type="curve" smooth="yes"/>
      <point x="294" y="433" type="line" smooth="yes"/>
      <point x="216" y="433"/>
      <point x="172" y="396"/>
      <point x="159" y="364" type="curve"/>
      <point x="176" y="710" type="line"/>
      <point x="549" y="710" type="line"/>
      <point x="549" y="732" type="line"/>
      <point x="154" y="732" type="line"/>
      <point x="133" y="304" type="line"/>
      <point x="155" y="304" type="line"/>
      <point x="169" y="378"/>
      <point x="216" y="411"/>
      <point x="291" y="411" type="curve" smooth="yes"/>
      <point x="386" y="411" type="line" smooth="yes"/>
      <point x="491" y="411"/>
      <point x="546" y="358"/>
      <point x="546" y="273" type="curve" smooth="yes"/>
      <point x="546" y="168" type="line" smooth="yes"/>
      <point x="546" y="68"/>
      <point x="457" y="18"/>
      <point x="355" y="18" type="curve" smooth="yes"/>
    </contour>
  </outline>
</glyph>
<glyph name="florin.smcp" format="2">
  <advance width="518"/>
  <note>

</note>
  <outline>
    <contour>
      <point x="36" y="-136" type="line"/>
      <point x="33" y="-151" type="line"/>
      <point x="48" y="-154"/>
      <point x="74" y="-156"/>
      <point x="94" y="-156" type="curve" smooth="yes"/>
      <point x="181" y="-156"/>
      <point x="214" y="-97"/>
      <point x="241" y="67" type="curve" smooth="yes"/>
      <point x="284" y="322" type="line"/>
      <point x="399" y="322" type="line"/>
      <point x="402" y="341" type="line"/>
      <point x="287" y="341" type="line"/>
      <point x="302" y="430" type="line" smooth="yes"/>
      <point x="323" y="550"/>
      <point x="344" y="590"/>
      <point x="412" y="590" type="curve" smooth="yes"/>
      <point x="475" y="590" type="line"/>
      <point x="477" y="605" type="line"/>
      <point x="468" y="607"/>
      <point x="447" y="610"/>
      <point x="411" y="610" type="curve" smooth="yes"/>
      <point x="327" y="610"/>
      <point x="301" y="565"/>
      <point x="278" y="427" type="curve" smooth="yes"/>
      <point x="263" y="342" type="line"/>
      <point x="181" y="342" type="line"/>
      <point x="178" y="322" type="line"/>
      <point x="260" y="322" type="line"/>
      <point x="217" y="66" type="line" smooth="yes"/>
      <point x="191" y="-90"/>
      <point x="160" y="-136"/>
      <point x="96" y="-136" type="curve" smooth="yes"/>
    </contour>
  </outline>
</glyph>
<glyph name="four.tnum" format="2">
  <advance width="609"/>
  <note>

</note>
  <outline>
    <contour>
      <point x="366" y="732" type="line"/>
      <point x="59" y="235" type="line"/>
      <point x="69" y="212" type="line"/>
      <point x="434" y="212" type="line"/>
      <point x="434" y="2" type="line"/>
      <point x="458" y="2" type="line"/>
      <point x="458" y="212" type="line"/>
      <point x="578" y="218" type="line"/>
      <point x="578" y="234" type="line"/>
      <point x="458" y="234" type="line"/>
      <point x="458" y="527" type="line"/>
      <point x="442" y="527" type="line"/>
      <point x="434" y="472" type="line"/>
      <point x="434" y="234" type="line"/>
      <point x="84" y="234" type="line"/>
      <point x="391" y="732" type="line"/>
    </contour>
  </outline>
</glyph>
<glyph name="hbar.smcp" format="2">
  <advance width="564"/>
  <note>

</note>
  <outline>
    <contour>
      <point x="26" y="406" type="line"/>
      <point x="538" y="406" type="line"/>
      <point x="538" y="424" type="line"/>
      <point x="26" y="424" type="line"/>
    </contour>
    <component base="h.smcp"/>
  </outline>
</glyph>
<glyph name="j.smcp" format="2">
  <advance width="324"/>
  <note>

</note>
  <anchor x="230" y="650" name="top"/>
  <outline>
    <contour>
      <point x="34" y="30" type="curve"/>
      <point x="34" y="14" type="line"/>
      <point x="56" y="4"/>
      <point x="93" y="-5"/>
      <point x="121" y="-5" type="curve" smooth="yes"/>
      <point x="198" y="-5"/>
      <point x="242" y="21"/>
      <point x="242" y="112" type="curve" smooth="yes"/>
      <point x="242" y="560" type="line"/>
      <point x="218" y="560" type="line"/>
      <point x="218" y="113" type="line" smooth="yes"/>
      <point x="218" y="32"/>
      <point x="177" y="16"/>
      <point x="120" y="16" type="curve" smooth="yes"/>
      <point x="96" y="16"/>
      <point x="57" y="23"/>
    </contour>
  </outline>
</glyph>
<glyph name="kip.smcp" format="2">
  <advance width="518"/>
  <note>

</note>
  <outline>
    <contour>
      <point x="36" y="291" type="line"/>
      <point x="36" y="270" type="line"/>
      <point x="450" y="270" type="line"/>
      <point x="450" y="291" type="line"/>
    </contour>
    <contour>
      <point x="98" y="560" type="line"/>
      <point x="98" y="0" type="line"/>
      <point x="122" y="0" type="line"/>
      <point x="122" y="270" type="line"/>
      <point x="244" y="270" type="line"/>
      <point x="436" y="0" type="line"/>
      <point x="462" y="0" type="line"/>
      <point x="264" y="281" type="line"/>
      <point x="462" y="560" type="line"/>
      <point x="436" y="560" type="line"/>
      <point x="245" y="291" type="line"/>
      <point x="122" y="291" type="line"/>
      <point x="122" y="560" type="line"/>
    </contour>
  </outline>
</glyph>
<glyph name="m.superior" format="2">
  <advance width="723"/>
  <note>

</note>
  <anchor x="361" y="169" name="bottom"/>
  <anchor x="361" y="759" name="top"/>
  <outline>
    <contour>
      <point x="67" y="672" type="line"/>
      <point x="67" y="280" type="line"/>
      <point x="89" y="280" type="line"/>
      <point x="89" y="613" type="line"/>
      <point x="144" y="642"/>
      <point x="184" y="658"/>
      <point x="248" y="658" type="curve" smooth="yes"/>
      <point x="314" y="658"/>
      <point x="352" y="610"/>
      <point x="352" y="552" type="curve" smooth="yes"/>
      <point x="352" y="280" type="line"/>
      <point x="374" y="280" type="line"/>
      <point x="374" y="551" type="line" smooth="yes"/>
      <point x="374" y="571"/>
      <point x="369" y="589"/>
      <point x="362" y="606" type="curve"/>
      <point x="415" y="635"/>
      <point x="476" y="658"/>
      <point x="532" y="658" type="curve" smooth="yes"/>
      <point x="598" y="658"/>
      <point x="636" y="610"/>
      <point x="636" y="552" type="curve" smooth="yes"/>
      <point x="636" y="280" type="line"/>
      <point x="658" y="280" type="line"/>
      <point x="658" y="552" type="line" smooth="yes"/>
      <point x="658" y="618"/>
      <point x="614" y="678"/>
      <point x="534" y="678" type="curve" smooth="yes"/>
      <point x="474" y="678"/>
      <point x="397" y="647"/>
      <point x="358" y="618" type="curve"/>
      <point x="338" y="653"/>
      <point x="302" y="678"/>
      <point x="251" y="678" type="curve" smooth="yes"/>
      <point x="190" y="678"/>
      <point x="133" y="654"/>
      <point x="89" y="626" type="curve"/>
      <point x="81" y="672" type="line"/>
    </contour>
  </outline>
</glyph>
<glyph name="naira.smcp" format="2">
  <advance width="518"/>
  <note>

</note>
  <outline>
    <contour>
      <point x="96" y="568" type="line"/>
      <point x="96" y="0" type="line"/>
      <point x="119" y="0" type="line"/>
      <point x="119" y="523" type="line"/>
      <point x="399" y="0" type="line"/>
      <point x="421" y="0" type="line"/>
      <point x="421" y="568" type="line"/>
      <point x="398" y="568" type="line"/>
      <point x="398" y="46" type="line"/>
      <point x="118" y="568" type="line"/>
    </contour>
    <contour>
      <point x="212" y="375" type="line"/>
      <point x="221" y="355" type="line"/>
      <point x="481" y="355" type="line"/>
      <point x="481" y="375" type="line"/>
    </contour>
    <contour>
      <point x="36" y="375" type="line"/>
      <point x="36" y="355" type="line"/>
      <point x="106" y="355" type="line"/>
      <point x="106" y="375" type="line"/>
    </contour>
    <contour>
      <point x="410" y="213" type="line"/>
      <point x="410" y="193" type="line"/>
      <point x="481" y="193" type="line"/>
      <point x="481" y="213" type="line"/>
    </contour>
    <contour>
      <point x="36" y="213" type="line"/>
      <point x="36" y="193" type="line"/>
      <point x="308" y="193" type="line"/>
      <point x="298" y="213" type="line"/>
    </contour>
  </outline>
</glyph>
<glyph name="nine.smcp" format="2">
  <advance width="538"/>
  <note>

</note>
  <outline>
    <contour>
      <point x="433" y="489"/>
      <point x="433" y="281" type="curve"/>
      <point x="248" y="281" type="line" smooth="yes"/>
      <point x="158" y="281"/>
      <point x="100" y="295"/>
      <point x="100" y="371" type="curve" smooth="yes"/>
      <point x="100" y="448" type="line" smooth="yes"/>
      <point x="100" y="526"/>
      <point x="152" y="542"/>
      <point x="209" y="542" type="curve" smooth="yes"/>
      <point x="303" y="542" type="line" smooth="yes"/>
      <point x="383" y="542"/>
    </contour>
    <contour>
      <point x="457" y="88"/>
      <point x="457" y="276" type="curve" smooth="yes"/>
      <point x="457" y="507"/>
      <point x="393" y="562"/>
      <point x="304" y="562" type="curve" smooth="yes"/>
      <point x="208" y="562" type="line" smooth="yes"/>
      <point x="139" y="562"/>
      <point x="76" y="534"/>
      <point x="76" y="448" type="curve" smooth="yes"/>
      <point x="76" y="370" type="line" smooth="yes"/>
      <point x="76" y="280"/>
      <point x="148" y="261"/>
      <point x="248" y="261" type="curve" smooth="yes"/>
      <point x="286" y="261"/>
      <point x="377" y="262"/>
      <point x="433" y="266" type="curve"/>
      <point x="433" y="97"/>
      <point x="365" y="18"/>
      <point x="264" y="18" type="curve" smooth="yes"/>
      <point x="112" y="18" type="line"/>
      <point x="112" y="2" type="line"/>
      <point x="154" y="0"/>
      <point x="216" y="-3"/>
      <point x="257" y="-3" type="curve" smooth="yes"/>
      <point x="383" y="-3"/>
    </contour>
  </outline>
</glyph>
<glyph name="one.smcp" format="2">
  <advance width="312"/>
  <note>

</note>
  <outline>
    <contour>
      <point x="55" y="511" type="line"/>
      <point x="55" y="496" type="line"/>
      <point x="190" y="542" type="line"/>
      <point x="190" y="0" type="line"/>
      <point x="214" y="0" type="line"/>
      <point x="214" y="566" type="line"/>
      <point x="190" y="566" type="line"/>
    </contour>
  </outline>
</glyph>
<glyph name="one.tosf" format="2">
  <advance width="609"/>
  <note>

</note>
  <outline>
    <contour>
      <point x="174" y="489" type="line"/>
      <point x="174" y="473" type="line"/>
      <point x="342" y="517" type="line"/>
      <point x="342" y="21" type="line"/>
      <point x="158" y="21" type="line"/>
      <point x="158" y="-1" type="line"/>
      <point x="548" y="-1" type="line"/>
      <point x="548" y="21" type="line"/>
      <point x="366" y="21" type="line"/>
      <point x="366" y="541" type="line"/>
      <point x="344" y="541" type="line"/>
    </contour>
  </outline>
</glyph>
<glyph name="peseta.smcp" format="2">
  <advance width="518"/>
  <note>

</note>
  <outline>
    <contour>
      <point x="282" y="191" type="curve" smooth="yes"/>
      <point x="122" y="191" type="line"/>
      <point x="122" y="539" type="line"/>
      <point x="290" y="539" type="line" smooth="yes"/>
      <point x="351" y="539"/>
      <point x="410" y="509"/>
      <point x="410" y="368" type="curve" smooth="yes"/>
      <point x="410" y="226"/>
      <point x="349" y="191"/>
    </contour>
    <contour>
      <point x="98" y="560" type="line"/>
      <point x="98" y="0" type="line"/>
      <point x="122" y="0" type="line"/>
      <point x="122" y="175" type="line"/>
      <point x="152" y="173"/>
      <point x="257" y="170"/>
      <point x="283" y="170" type="curve" smooth="yes"/>
      <point x="347" y="170"/>
      <point x="434" y="203"/>
      <point x="434" y="368" type="curve" smooth="yes"/>
      <point x="434" y="530"/>
      <point x="355" y="560"/>
      <point x="291" y="560" type="curve" smooth="yes"/>
    </contour>
    <contour>
      <point x="113" y="372" type="line"/>
      <point x="113" y="353" type="line"/>
      <point x="498" y="353" type="line"/>
      <point x="498" y="372" type="line"/>
    </contour>
    <contour>
      <point x="28" y="372" type="line"/>
      <point x="28" y="353" type="line"/>
      <point x="109" y="353" type="line"/>
      <point x="109" y="372" type="line"/>
    </contour>
  </outline>
</glyph>
<glyph name="peso.smcp" format="2">
  <advance width="518"/>
  <note>

</note>
  <outline>
    <contour>
      <point x="414" y="445" type="line"/>
      <point x="414" y="426" type="line"/>
      <point x="498" y="426" type="line"/>
      <point x="498" y="445" type="line"/>
    </contour>
    <contour>
      <point x="20" y="445" type="line"/>
      <point x="20" y="426" type="line"/>
      <point x="134" y="426" type="line"/>
      <point x="134" y="445" type="line"/>
    </contour>
    <contour>
      <point x="405" y="317" type="line"/>
      <point x="397" y="298" type="line"/>
      <point x="498" y="298" type="line"/>
      <point x="498" y="317" type="line"/>
    </contour>
    <contour>
      <point x="20" y="317" type="line"/>
      <point x="20" y="298" type="line"/>
      <point x="136" y="298" type="line"/>
      <point x="136" y="317" type="line"/>
    </contour>
    <contour>
      <point x="274" y="237" type="curve" smooth="yes"/>
      <point x="146" y="237" type="line"/>
      <point x="146" y="539" type="line"/>
      <point x="282" y="539" type="line" smooth="yes"/>
      <point x="343" y="539"/>
      <point x="402" y="513"/>
      <point x="402" y="391" type="curve" smooth="yes"/>
      <point x="402" y="267"/>
      <point x="341" y="237"/>
    </contour>
    <contour>
      <point x="122" y="560" type="line"/>
      <point x="122" y="0" type="line"/>
      <point x="146" y="0" type="line"/>
      <point x="146" y="221" type="line"/>
      <point x="181" y="219"/>
      <point x="244" y="216"/>
      <point x="275" y="216" type="curve" smooth="yes"/>
      <point x="339" y="216"/>
      <point x="426" y="245"/>
      <point x="426" y="391" type="curve" smooth="yes"/>
      <point x="426" y="534"/>
      <point x="347" y="560"/>
      <point x="283" y="560" type="curve" smooth="yes"/>
    </contour>
  </outline>
</glyph>
<glyph name="s_t" format="2">
  <advance width="849"/>
  <note>

</note>
  <outline>
    <contour>
      <point x="436" y="16"/>
      <point x="436" y="123" type="curve" smooth="yes"/>
      <point x="436" y="152" type="line" smooth="yes"/>
      <point x="436" y="234"/>
      <point x="374" y="276"/>
      <point x="286" y="276" type="curve" smooth="yes"/>
      <point x="218" y="276" type="line" smooth="yes"/>
      <point x="139" y="276"/>
      <point x="84" y="288"/>
      <point x="84" y="373" type="curve" smooth="yes"/>
      <point x="84" y="399" type="line" smooth="yes"/>
      <point x="84" y="488"/>
      <point x="142" y="513"/>
      <point x="246" y="513" type="curve" smooth="yes"/>
      <point x="609" y="513" type="line"/>
      <point x="607" y="158" type="line" smooth="yes"/>
      <point x="606" y="47"/>
      <point x="656" y="0"/>
      <point x="742" y="0" type="curve" smooth="yes"/>
      <point x="797" y="0" type="line"/>
      <point x="797" y="16" type="line"/>
      <point x="733" y="22" type="line" smooth="yes"/>
      <point x="694" y="26"/>
      <point x="631" y="39"/>
      <point x="631" y="158" type="curve" smooth="yes"/>
      <point x="631" y="509" type="line"/>
      <point x="806" y="509" type="line"/>
      <point x="806" y="531" type="line"/>
      <point x="631" y="531" type="line"/>
      <point x="631" y="680" type="line"/>
      <point x="615" y="680" type="line"/>
      <point x="609" y="531" type="line"/>
      <point x="540" y="533"/>
      <point x="344" y="536"/>
      <point x="246" y="536" type="curve" smooth="yes"/>
      <point x="125" y="536"/>
      <point x="60" y="497"/>
      <point x="60" y="399" type="curve" smooth="yes"/>
      <point x="60" y="373" type="line" smooth="yes"/>
      <point x="60" y="279"/>
      <point x="120" y="252"/>
      <point x="218" y="252" type="curve" smooth="yes"/>
      <point x="286" y="252" type="line" smooth="yes"/>
      <point x="371" y="252"/>
      <point x="412" y="215"/>
      <point x="412" y="152" type="curve" smooth="yes"/>
      <point x="412" y="123" type="line" smooth="yes"/>
      <point x="412" y="27"/>
      <point x="349" y="16"/>
      <point x="266" y="16" type="curve" smooth="yes"/>
      <point x="62" y="16" type="line"/>
      <point x="62" y="0" type="line"/>
      <point x="90" y="-2"/>
      <point x="225" y="-6"/>
      <point x="266" y="-6" type="curve" smooth="yes"/>
      <point x="358" y="-6"/>
    </contour>
  </outline>
</glyph>
<glyph name="sterling.smcp" format="2">
  <advance width="518"/>
  <note>

</note>
  <outline>
    <contour>
      <point x="67" y="16" type="line"/>
      <point x="67" y="0" type="line"/>
      <point x="444" y="0" type="line"/>
      <point x="444" y="21" type="line"/>
      <point x="189" y="21" type="line"/>
      <point x="189" y="265" type="line"/>
      <point x="381" y="268" type="line"/>
      <point x="381" y="282" type="line"/>
      <point x="189" y="285" type="line"/>
      <point x="189" y="408" type="line" smooth="yes"/>
      <point x="189" y="519"/>
      <point x="235" y="540"/>
      <point x="321" y="540" type="curve" smooth="yes"/>
      <point x="430" y="540" type="line"/>
      <point x="430" y="555" type="line"/>
      <point x="402" y="557"/>
      <point x="358" y="560"/>
      <point x="319" y="560" type="curve" smooth="yes"/>
      <point x="230" y="560"/>
      <point x="165" y="535"/>
      <point x="165" y="408" type="curve" smooth="yes"/>
      <point x="165" y="285" type="line"/>
      <point x="67" y="282" type="line"/>
      <point x="67" y="268" type="line"/>
      <point x="165" y="265" type="line"/>
      <point x="165" y="21" type="line"/>
    </contour>
  </outline>
</glyph>
<glyph name="u.superior" format="2">
  <advance width="438"/>
  <note>

</note>
  <anchor x="211" y="169" name="bottom"/>
  <anchor x="366" y="280" name="ogonek"/>
  <anchor x="211" y="759" name="top"/>
  <outline>
    <contour>
      <point x="67" y="672" type="line"/>
      <point x="67" y="397" type="line" smooth="yes"/>
      <point x="67" y="309"/>
      <point x="111" y="276"/>
      <point x="190" y="276" type="curve" smooth="yes"/>
      <point x="251" y="276"/>
      <point x="308" y="298"/>
      <point x="352" y="325" type="curve"/>
      <point x="360" y="280" type="line"/>
      <point x="374" y="280" type="line"/>
      <point x="374" y="672" type="line"/>
      <point x="352" y="672" type="line"/>
      <point x="352" y="339" type="line"/>
      <point x="297" y="310"/>
      <point x="257" y="296"/>
      <point x="197" y="296" type="curve" smooth="yes"/>
      <point x="127" y="296"/>
      <point x="89" y="318"/>
      <point x="89" y="399" type="curve" smooth="yes"/>
      <point x="89" y="672" type="line"/>
    </contour>
  </outline>
</glyph>
<glyph name="x.salt" format="2">
  <advance width="520"/>
  <note>

</note>
  <anchor x="262" y="-150" name="bottom"/>
  <anchor x="262" y="650" name="top"/>
  <outline>
    <contour>
      <point x="311" y="195" type="curve" smooth="yes"/>
      <point x="459" y="0" type="line"/>
      <point x="488" y="0" type="line"/>
      <point x="328" y="213" type="line" smooth="yes"/>
      <point x="308.755" y="238.62"/>
      <point x="305" y="260"/>
      <point x="305" y="278" type="curve" smooth="yes"/>
      <point x="305" y="299"/>
      <point x="312.621" y="321.715"/>
      <point x="338" y="352" type="curve" smooth="yes"/>
      <point x="488" y="531" type="line"/>
      <point x="459" y="531" type="line"/>
      <point x="326" y="375" type="line" smooth="yes"/>
      <point x="292.261" y="335.426"/>
      <point x="280" y="305"/>
      <point x="280" y="277" type="curve" smooth="yes"/>
      <point x="280" y="253"/>
      <point x="286.945" y="226.694"/>
    </contour>
    <contour>
      <point x="192" y="213" type="curve" smooth="yes"/>
      <point x="32" y="0" type="line"/>
      <point x="61" y="0" type="line"/>
      <point x="209" y="195" type="line" smooth="yes"/>
      <point x="232.203" y="225.571"/>
      <point x="238" y="252"/>
      <point x="238" y="277" type="curve" smooth="yes"/>
      <point x="238" y="305"/>
      <point x="226.814" y="336.512"/>
      <point x="194" y="375" type="curve" smooth="yes"/>
      <point x="61" y="531" type="line"/>
      <point x="32" y="531" type="line"/>
      <point x="182" y="352" type="line" smooth="yes"/>
      <point x="205.158" y="324.365"/>
      <point x="214" y="301"/>
      <point x="214" y="278" type="curve" smooth="yes"/>
      <point x="214" y="260"/>
      <point x="210.669" y="237.852"/>
    </contour>
  </outline>
</glyph>
<glyph name="zero.oldstyle.zero" format="2">
  <advance width="609"/>
  <outline>
    <contour>
      <point x="476" y="509" type="line"/>
      <point x="453" y="509" type="line"/>
      <point x="131" y="34" type="line"/>
      <point x="154" y="34" type="line"/>
    </contour>
    <component base="zero.oldstyle"/>
  </outline>
</glyph>
<glyph name="zero.zero" format="2">
  <advance width="662"/>
  <note>
GF Latin Plus glyph
</note>
  <outline>
    <contour>
      <point x="157" y="34" type="line"/>
      <point x="180" y="34" type="line"/>
      <point x="502" y="709" type="line"/>
      <point x="479" y="709" type="line"/>
    </contour>
    <component base="zero"/>
  </outline>
</glyph>
